<svg width="293" height="16" viewBox="0 0 293 16" fill="none" xmlns="http://www.w3.org/2000/svg">
    <path d="M108.13 8.768C107.352 8.55467 106.797 8.25067 106.466 7.856C106.146 7.46133 106.013 6.95467 106.066 6.336C106.109 5.78133 106.392 5.31733 106.914 4.944C107.437 4.56 108.045 4.368 108.738 4.368C109.474 4.368 110.098 4.54933 110.61 4.912C111.133 5.27467 111.416 5.82933 111.458 6.576H109.89C109.858 6.30933 109.736 6.112 109.522 5.984C109.32 5.84533 109.08 5.776 108.802 5.776C108.589 5.776 108.376 5.81333 108.162 5.888C107.96 5.96267 107.821 6.064 107.746 6.192C107.618 6.40533 107.597 6.62933 107.682 6.864C107.757 7.09867 108.061 7.29067 108.594 7.44L109.746 7.728C111.048 8.048 111.698 8.77333 111.698 9.904C111.698 10.608 111.421 11.1627 110.866 11.568C110.312 11.9627 109.597 12.16 108.722 12.16C107.976 12.16 107.314 11.9413 106.738 11.504C106.162 11.056 105.869 10.4587 105.858 9.712H107.378C107.421 10.0427 107.57 10.304 107.826 10.496C108.082 10.688 108.424 10.784 108.85 10.784C109.234 10.784 109.549 10.704 109.794 10.544C110.05 10.384 110.178 10.1653 110.178 9.888C110.178 9.46133 109.832 9.168 109.138 9.008L108.13 8.768ZM115.128 12V4.528H113.496V12H115.128ZM113.528 2.24C113.314 2.03733 113.208 1.792 113.208 1.504C113.208 1.216 113.314 0.970666 113.528 0.768C113.752 0.565333 114.013 0.464 114.312 0.464C114.621 0.464 114.877 0.565333 115.08 0.768C115.293 0.96 115.4 1.20533 115.4 1.504C115.4 1.80267 115.293 2.05333 115.08 2.256C114.877 2.448 114.621 2.544 114.312 2.544C114.013 2.544 113.752 2.44267 113.528 2.24ZM123.241 8.272C123.241 7.55733 123.017 6.99733 122.569 6.592C122.132 6.176 121.588 5.968 120.937 5.968C120.297 5.968 119.759 6.18667 119.321 6.624C118.884 7.05067 118.665 7.6 118.665 8.272C118.665 8.95467 118.884 9.50933 119.321 9.936C119.759 10.3627 120.297 10.576 120.937 10.576C121.535 10.576 122.068 10.368 122.537 9.952C123.007 9.52533 123.241 8.96533 123.241 8.272ZM118.681 12.944C118.873 13.328 119.167 13.632 119.561 13.856C119.956 14.08 120.361 14.192 120.777 14.192C122.441 14.192 123.273 13.2107 123.273 11.248V10.864C123.06 11.2693 122.713 11.5893 122.233 11.824C121.764 12.048 121.268 12.16 120.745 12.16C119.7 12.16 118.809 11.8027 118.073 11.088C117.337 10.3733 116.969 9.44 116.969 8.288C116.969 7.12533 117.337 6.18133 118.073 5.456C118.809 4.73067 119.7 4.368 120.745 4.368C121.268 4.368 121.764 4.48 122.233 4.704C122.703 4.928 123.049 5.23733 123.273 5.632V4.528H124.889V10.896C124.889 14.1173 123.519 15.728 120.777 15.728C120.052 15.728 119.38 15.5413 118.761 15.168C118.153 14.8053 117.673 14.2933 117.321 13.632C117.417 13.5893 117.641 13.472 117.993 13.28C118.356 13.0987 118.585 12.9867 118.681 12.944ZM128.847 7.984V12H127.199V4.528H128.847V5.648C129.05 5.24267 129.37 4.928 129.807 4.704C130.244 4.48 130.687 4.368 131.135 4.368C132.042 4.368 132.74 4.65067 133.231 5.216C133.732 5.78133 133.983 6.592 133.983 7.648V12H132.335V7.84C132.335 7.25333 132.191 6.8 131.903 6.48C131.626 6.14933 131.247 5.984 130.767 5.984C130.223 5.984 129.764 6.14933 129.391 6.48C129.028 6.8 128.847 7.30133 128.847 7.984ZM141.909 12V4.528H140.277V12H141.909ZM140.309 2.24C140.096 2.03733 139.989 1.792 139.989 1.504C139.989 1.216 140.096 0.970666 140.309 0.768C140.533 0.565333 140.794 0.464 141.093 0.464C141.402 0.464 141.658 0.565333 141.861 0.768C142.074 0.96 142.181 1.20533 142.181 1.504C142.181 1.80267 142.074 2.05333 141.861 2.256C141.658 2.448 141.402 2.544 141.093 2.544C140.794 2.544 140.533 2.44267 140.309 2.24ZM145.863 7.984V12H144.215V4.528H145.863V5.648C146.065 5.24267 146.385 4.928 146.823 4.704C147.26 4.48 147.703 4.368 148.151 4.368C149.057 4.368 149.756 4.65067 150.247 5.216C150.748 5.78133 150.999 6.592 150.999 7.648V12H149.351V7.84C149.351 7.25333 149.207 6.8 148.919 6.48C148.641 6.14933 148.263 5.984 147.783 5.984C147.239 5.984 146.78 6.14933 146.407 6.48C146.044 6.8 145.863 7.30133 145.863 7.984ZM167.974 4.528L165.238 12H163.878L161.974 6.704L160.15 12H158.806L155.99 4.528H157.75L159.478 9.568L161.206 4.528H162.742L164.47 9.568L166.214 4.528H167.974ZM171.05 12V4.528H169.418V12H171.05ZM169.45 2.24C169.236 2.03733 169.13 1.792 169.13 1.504C169.13 1.216 169.236 0.970666 169.45 0.768C169.674 0.565333 169.935 0.464 170.234 0.464C170.543 0.464 170.799 0.565333 171.002 0.768C171.215 0.96 171.322 1.20533 171.322 1.504C171.322 1.80267 171.215 2.05333 171.002 2.256C170.799 2.448 170.543 2.544 170.234 2.544C169.935 2.544 169.674 2.44267 169.45 2.24ZM175.595 1.696V4.528H177.179V5.888H175.595V12H173.947V5.888H172.603V4.528H173.947V1.696H175.595ZM180.378 7.984V12H178.73V0.464H180.378V5.664C180.57 5.248 180.901 4.928 181.37 4.704C181.839 4.48 182.298 4.368 182.746 4.368C183.695 4.368 184.437 4.66667 184.97 5.264C185.503 5.85067 185.77 6.67733 185.77 7.744V12H184.122V7.84C184.122 7.27467 183.962 6.82667 183.642 6.496C183.333 6.15467 182.938 5.984 182.458 5.984C181.903 5.984 181.418 6.14933 181.002 6.48C180.586 6.81067 180.378 7.312 180.378 7.984Z" fill="white"/>
    <line x1="84" y1="8.5" y2="8.5" stroke="white" stroke-opacity="0.5"/>
    <line x1="293" y1="8.5" x2="204" y2="8.5" stroke="white" stroke-opacity="0.5"/>
</svg>
